<svg width="72" height="72" viewBox="0 0 72 72" fill="none" xmlns="http://www.w3.org/2000/svg">
<rect width="72" height="72" rx="16" fill="white"/>
<path d="M39.9412 43.8459C42.9958 47.3054 46.1231 51.954 47.3049 53.8459C37.214 58.1703 25.7594 54.6567 21.1231 50.6027C16.4867 46.5486 11.0322 35.7378 19.214 24.1162C25.7594 14.8189 37.0322 15.3775 41.8503 16.8189C40.9776 19.8459 37.3049 25.6477 35.5776 28.1702C35.3752 28.4658 34.9591 28.7063 34.4773 28.8979C33.0715 29.457 31.9091 30.6571 31.9091 32.17V32.7648H30.5455C29.1818 32.7648 28.9675 32.0766 28.214 31.1432C27.2247 29.9178 25.9091 29.7919 25.0909 29.7919C24.2727 29.7919 21 30.3324 21 33.8459C21 36.8189 23.4545 37.6297 25.0909 37.6297C26.3182 37.6297 26.3315 35.7378 25.0909 35.7378C23.4545 35.7378 22.9091 34.775 22.9091 33.8459C22.9091 32.9169 23.4545 31.6838 25.0909 31.6838C26.7273 31.6838 27.2727 32.7648 27.8182 33.3054C28.3636 33.8459 28.9091 34.6567 30.2727 34.6567H31.9091V35.2589C31.9091 36.6263 32.9462 37.6577 34.214 38.1702C34.719 38.3744 36.1231 39.5216 39.9412 43.8459Z" fill="url(#paint0_linear)"/>
<path d="M38.3049 29.5216C39.614 27.1432 43.7594 21.3234 45.6685 18.7108C48.8503 20.3324 55.4867 25.6297 56.5776 33.8459C57.6685 42.0621 54.4867 48.0802 52.7594 50.0621C49.1231 47.1793 41.3594 40.8729 39.3958 38.7108C36.9412 36.0081 36.6685 32.4946 38.3049 29.5216Z" fill="url(#paint1_linear)"/>
<defs>
<linearGradient id="paint0_linear" x1="35.9001" y1="16" x2="35.9001" y2="55.829" gradientUnits="userSpaceOnUse">
<stop stop-color="#00E991"/>
<stop offset="1" stop-color="#00DDC5"/>
</linearGradient>
<linearGradient id="paint1_linear" x1="35.9001" y1="16" x2="35.9001" y2="55.829" gradientUnits="userSpaceOnUse">
<stop stop-color="#00E991"/>
<stop offset="1" stop-color="#00DDC5"/>
</linearGradient>
</defs>
</svg>
