<svg width="72" height="72" viewBox="0 0 72 72" fill="none" xmlns="http://www.w3.org/2000/svg">
<rect width="72" height="72" rx="16" fill="#2899D5"/>
<path fill-rule="evenodd" clip-rule="evenodd" d="M14.1195 26.4709C13.9092 26.1801 13.5402 26 13.1577 26C13.0507 26 12.9445 26.0141 12.8432 26.0413C12.3451 26.1632 12 26.5638 12 27.0168V44.9879C12 45.546 12.5163 46 13.1501 46C13.7849 46 14.3002 45.546 14.3002 44.9879V30.9903V30.4819L14.6004 30.8956L16.434 33.4217C16.6463 33.7116 17.0086 33.8851 17.4025 33.8851C17.6118 33.8851 17.8193 33.8344 18.0019 33.7388C18.2734 33.5924 18.4646 33.3523 18.5287 33.0793C18.5889 32.8195 18.5334 32.5531 18.3709 32.3289L14.1195 26.4709Z" fill="white"/>
<path fill-rule="evenodd" clip-rule="evenodd" d="M25.9093 26.0431C25.8022 26.0141 25.6951 26 25.5871 26C25.2028 26 24.8337 26.1801 24.6244 26.47L16.7104 37.3736C16.5489 37.5978 16.4925 37.8642 16.5536 38.1241C16.6167 38.397 16.8089 38.6372 17.0795 38.7826C17.263 38.8801 17.4724 38.9326 17.6837 38.9326C18.0766 38.9326 18.438 38.7572 18.6492 38.4655L24.1425 30.8946L24.4427 30.481V30.9894V44.9879C24.4427 45.546 24.959 46 25.5928 46C26.2276 46 26.7429 45.546 26.7429 44.9879V27.0159C26.7429 26.5647 26.4007 26.1642 25.9093 26.0431Z" fill="white"/>
<path fill-rule="evenodd" clip-rule="evenodd" d="M38.3478 26.6603C38.1864 26.2654 37.7498 26 37.261 26C37.1386 26 37.0152 26.0168 36.8956 26.0503C36.5966 26.1416 36.3499 26.3436 36.2236 26.6053C36.1097 26.84 36.1012 27.1008 36.199 27.3401L39.9718 36.5997L40.061 36.8205H39.8189H34.5105H34.2722L34.3567 36.6025L36.4448 31.19C36.5378 30.9497 36.5236 30.6899 36.4059 30.458C36.2739 30.1991 36.0224 30.0007 35.7158 29.9141C35.5982 29.8806 35.4767 29.8629 35.3552 29.8629C34.8692 29.8629 34.4383 30.1386 34.2817 30.5483L28.8593 44.6757C28.7663 44.916 28.7805 45.1768 28.8992 45.4086C29.0321 45.6675 29.2817 45.865 29.5845 45.9497C29.6984 45.9832 29.817 46 29.9413 46C30.433 46 30.8667 45.7253 31.0224 45.3164L33.4645 38.9344L33.5044 38.8301H33.6183H40.769H40.8801L40.9218 38.9316L43.532 45.336C43.6933 45.7337 44.1252 46 44.6064 46C44.7269 46 44.8503 45.9823 44.9841 45.946C45.2831 45.8547 45.5299 45.6526 45.6561 45.3919C45.77 45.1563 45.7785 44.8946 45.6808 44.6571L38.3478 26.6603Z" fill="white"/>
<path fill-rule="evenodd" clip-rule="evenodd" d="M58.0006 29.4377C58.218 29.6579 58.5319 29.7845 58.8619 29.7845C59.1247 29.7845 59.3828 29.7019 59.588 29.5533C59.8281 29.3808 59.9728 29.1368 59.9964 28.8661C60.0191 28.6028 59.9227 28.3468 59.7241 28.1468C57.6224 26.0248 54.1403 26 53.9928 26C48.4969 26 46.9171 29.6414 46.849 31.5662L46.8499 37.2681C46.8499 37.814 47.3595 38.2581 47.9864 38.2581C48.6142 38.2581 49.1238 37.814 49.1238 37.2681L49.1228 31.6047C49.1408 31.2267 49.4244 27.9799 53.9909 27.9799C54.0165 27.9799 56.5928 28.0193 58.0006 29.4377Z" fill="white"/>
<path fill-rule="evenodd" clip-rule="evenodd" d="M47.1133 39.8804C46.9346 40.0698 46.841 40.3109 46.8495 40.5604C46.9176 42.5153 48.4984 46 53.9933 46C54.1398 46 57.6219 45.9756 59.7236 43.8116C59.9014 43.6259 59.9997 43.3904 59.9997 43.1503V37.9799C59.9997 37.4218 59.4891 36.9678 58.8614 36.9678H52.0447C51.4179 36.9678 50.9074 37.4218 50.9074 37.9799C50.9074 38.538 51.4179 38.992 52.0447 38.992H57.5604H57.724V39.1543V42.6663V42.7441L57.6626 42.7929C56.216 43.9439 54.015 43.9758 53.9933 43.9758C49.424 43.9758 49.1403 40.869 49.1233 40.4901C49.0978 39.9554 48.5693 39.5192 47.9453 39.5192C47.6248 39.5295 47.3204 39.6609 47.1133 39.8804Z" fill="white"/>
</svg>
