<svg width="72" height="72" viewBox="0 0 72 72" fill="none" xmlns="http://www.w3.org/2000/svg">
<rect width="72" height="72" rx="16" fill="#28367F"/>
<g clip-path="url(#clip0)">
<path d="M21.8333 21.8028C21.8333 19.2423 23.8947 17.1666 26.4375 17.1666H45.5625C48.1053 17.1666 50.1667 19.2423 50.1667 21.8028V39.5682C50.1667 40.7978 49.6816 41.977 48.8182 42.8465L39.2556 52.4754C37.4576 54.2859 34.5424 54.2859 32.7444 52.4754L23.1819 42.8465C22.3184 41.977 21.8333 40.7978 21.8333 39.5682V21.8028Z" fill="#FFCE00"/>
<path d="M28.4049 29.7869C28.0857 29.4663 28.0857 28.9465 28.4049 28.626L29.5607 27.465C29.8799 27.1445 30.3974 27.1445 30.7166 27.465L31.8724 28.626C32.1916 28.9465 32.1916 29.4663 31.8724 29.7869L30.7166 30.9478C30.3974 31.2684 29.8799 31.2684 29.5607 30.9478L28.4049 29.7869Z" fill="#28367F"/>
<path d="M40.392 29.7869C40.0729 29.4663 40.0729 28.9465 40.392 28.626L41.5479 27.465C41.8671 27.1445 42.3846 27.1445 42.7037 27.465L43.8596 28.626C44.1788 28.9465 44.1788 29.4663 43.8596 29.7869L42.7037 30.9478C42.3846 31.2684 41.8671 31.2684 41.5479 30.9478L40.392 29.7869Z" fill="#28367F"/>
<path d="M27.6505 35.1244L29.4218 33.385C29.6226 33.1878 29.9405 33.1784 30.1612 33.3528C36.203 38.1283 43.864 36.3025 43.864 36.3025C37.3028 41.3435 30.2493 38.4045 27.6356 35.8588C27.4281 35.6566 27.4438 35.3274 27.6505 35.1244Z" fill="url(#paint0_linear)"/>
<path d="M44.3495 35.1244L42.5782 33.385C42.3774 33.1878 42.0595 33.1784 41.8388 33.3528C35.7971 38.1283 28.136 36.3025 28.136 36.3025C34.6972 41.3435 41.7507 38.4045 44.3644 35.8588C44.572 35.6566 44.5562 35.3274 44.3495 35.1244Z" fill="url(#paint1_linear)"/>
</g>
<defs>
<linearGradient id="paint0_linear" x1="27.5592" y1="39.0236" x2="44.1844" y2="39.0236" gradientUnits="userSpaceOnUse">
<stop stop-color="#28367F"/>
<stop offset="1" stop-color="#008DEB"/>
</linearGradient>
<linearGradient id="paint1_linear" x1="44.4408" y1="39.0236" x2="27.8156" y2="39.0236" gradientUnits="userSpaceOnUse">
<stop stop-color="#28367F"/>
<stop offset="1" stop-color="#008DEB"/>
</linearGradient>
<clipPath id="clip0">
<rect width="28.3333" height="36.6667" fill="white" transform="translate(21.8333 17.1666)"/>
</clipPath>
</defs>
</svg>
