<svg width="72" height="72" viewBox="0 0 72 72" fill="none" xmlns="http://www.w3.org/2000/svg">
<rect width="72" height="72" rx="16" fill="white"/>
<path fill-rule="evenodd" clip-rule="evenodd" d="M17 23.3744V46.6336H25.4978C32.0278 46.6336 37.4015 41.3245 37.2857 34.795C37.1738 28.4783 32.0005 23.3744 25.6575 23.3744H17ZM25.5165 44.0054H19.6282V26.0026H25.6604C30.6677 26.0026 34.7335 30.1129 34.6608 35.137C34.5891 40.0798 30.4597 44.0054 25.5165 44.0054Z" fill="black"/>
<path fill-rule="evenodd" clip-rule="evenodd" d="M54.9115 44.9896C56.3725 43.752 57.1443 41.9386 57.1443 39.7465C57.1443 37.5166 56.2419 35.828 54.4634 34.7267C53.0102 33.8272 50.9548 33.3059 47.9952 33.0864C42.6028 32.5877 42.6024 30.3023 42.6024 29.5505C42.6024 27.1767 44.6764 25.6426 47.8861 25.6426C51.1394 25.6426 53.5931 27.323 53.5931 29.5505H56.2357C56.2357 25.8167 52.6458 23 47.8861 23C43.2193 23 39.9602 25.6938 39.9602 29.5505C39.9602 31.3921 40.7421 32.9262 42.2227 33.9879C43.5201 34.9175 45.3846 35.5004 47.7651 35.719L47.7886 35.7214C53.9828 36.1781 54.5022 38.0388 54.5022 39.7465C54.5022 40.8708 54.5022 44.2938 48.2587 44.2938C44.3631 44.2938 41.6426 42.2839 41.6426 39.4065H39C39 43.7692 42.8936 46.9359 48.2587 46.9359C51.1494 46.9359 53.3879 46.2812 54.9115 44.9896Z" fill="black"/>
</svg>
