<svg width="72" height="72" viewBox="0 0 72 72" fill="none" xmlns="http://www.w3.org/2000/svg">
<rect width="72" height="72" rx="16" fill="#F7BE00"/>
<path d="M35.7752 50.4935L34.6002 49.3187C34.2824 49.001 34.2824 48.4915 34.6002 48.1738L41.8601 40.9151H25.3499C24.9002 40.9151 24.5405 40.5554 24.5405 40.1059V38.4455C24.5405 37.996 24.9002 37.6364 25.3499 37.6364H45.7329C46.2664 37.6364 46.8 37.8521 47.1177 38.2777C47.6273 38.955 47.5434 39.8661 46.9738 40.4356L36.9202 50.4935C36.6025 50.8052 36.0929 50.8052 35.7752 50.4935Z" fill="#12284C"/>
<path d="M35.7752 21.5065L34.6002 22.6813C34.2824 22.999 34.2824 23.5085 34.6002 23.8262L41.8601 31.0849H25.3499C24.9002 31.0849 24.5405 31.4445 24.5405 31.8941V33.5544C24.5405 34.004 24.9002 34.3636 25.3499 34.3636H45.7329C46.2664 34.3636 46.8 34.1478 47.1177 33.7223C47.6273 33.0449 47.5434 32.1338 46.9738 31.5644L36.9202 21.5065C36.6025 21.1948 36.0929 21.1948 35.7752 21.5065Z" fill="#12284C"/>
</svg>
