<svg width="264" height="48" viewBox="0 0 264 48" fill="none" xmlns="http://www.w3.org/2000/svg">
<path fill-rule="evenodd" clip-rule="evenodd" d="M20.5245 6.17225C19.5884 7.60393 19 9.65424 19 12V27H29V12C29 9.65424 28.4116 7.60393 27.4755 6.17225C26.5436 4.74694 25.3242 4 24 4C22.6758 4 21.4564 4.74694 20.5245 6.17225ZM27 29H21V30H27V29ZM17 27V26H11.5V27H17ZM11.5148 24H17V17.9142L12.0858 22.8284C11.7684 23.1459 11.5687 23.559 11.5148 24ZM17 15.0858L10.6716 21.4142C9.92143 22.1644 9.5 23.1818 9.5 24.2426V27C9.5 28.1046 10.3954 29 11.5 29H19V30C19 31.1046 19.8954 32 21 32H27C28.1046 32 29 31.1046 29 30V29H36.5C37.6046 29 38.5 28.1046 38.5 27V24.2426C38.5 23.1818 38.0786 22.1644 37.3284 21.4142L31 15.0858V12C31 9.34576 30.3384 6.89607 29.1495 5.07775C27.9564 3.25306 26.1758 2 24 2C21.8242 2 20.0436 3.25306 18.8505 5.07775C17.6616 6.89607 17 9.34576 17 12V15.0858ZM31 17.9142V24H36.4852C36.4313 23.559 36.2316 23.1458 35.9142 22.8284L31 17.9142ZM36.5 26V27H31V26H36.5Z" fill="white"/>
<path fill-rule="evenodd" clip-rule="evenodd" d="M24 9C22.8954 9 22 9.89543 22 11C22 12.1046 22.8954 13 24 13C25.1046 13 26 12.1046 26 11C26 9.89543 25.1046 9 24 9ZM20 11C20 8.79086 21.7909 7 24 7C26.2091 7 28 8.79086 28 11C28 13.2091 26.2091 15 24 15C21.7909 15 20 13.2091 20 11Z" fill="#9EE3F0"/>
<path fill-rule="evenodd" clip-rule="evenodd" d="M20.5 35V34H22.5V35C22.5 38.0485 21.0641 40.7617 18.8317 42.5H22V44.5H3V42.5H13C17.1421 42.5 20.5 39.1421 20.5 35ZM25.5 35V34H27.5V35C27.5 39.1421 30.8579 42.5 35 42.5H45V44.5H26V42.5H29.1683C26.9359 40.7617 25.5 38.0485 25.5 35Z" fill="#FCB4BC"/>
<path fill-rule="evenodd" clip-rule="evenodd" d="M35 41C35 38.2386 32.7614 36 30 36V34C33.866 34 37 37.134 37 41H35Z" fill="#EF4056"/>
<path fill-rule="evenodd" clip-rule="evenodd" d="M40 41C40 39.3431 38.6569 38 37 38V36C39.7614 36 42 38.2386 42 41H40Z" fill="#FCB4BC"/>
<path fill-rule="evenodd" clip-rule="evenodd" d="M8 41C8 39.3431 9.34315 38 11 38V36C8.23858 36 6 38.2386 6 41H8Z" fill="#FCB4BC"/>
<path fill-rule="evenodd" clip-rule="evenodd" d="M13 41C13 38.2386 15.2386 36 18 36V34C14.134 34 11 37.134 11 41H13Z" fill="#EF4056"/>
<path fill-rule="evenodd" clip-rule="evenodd" d="M83 27C83 24.7909 84.7908 23 87 23V25C85.8954 25 85 25.8954 85 27V27.5H83V27ZM80.0002 33.4141L75.2072 38.2071L73.793 36.7928L82.5002 28.0857L91.9144 37.5L83.2072 46.2071L81.793 44.7929L86.586 40L80.0002 33.4141ZM88.0002 38.5857L81.4144 31.9999L82.5002 30.9141L89.086 37.5L88.0002 38.5857ZM91.2928 35.2929L93.7928 32.7929L95.207 34.2071L92.707 36.7071L91.2928 35.2929Z" fill="#9EE3F0"/>
<path d="M90 2V11H102V2H104V13H88V2H90Z" fill="white"/>
<path d="M105 16.1492L102.781 13.3753L101.219 14.6247L103 16.8508V20C103 20.2761 102.776 20.5 102.5 20.5C102.224 20.5 102 20.2761 102 20V18H100V26C100 26.2761 99.7761 26.5 99.5 26.5C99.2239 26.5 99 26.2761 99 26V21H97V29C97 29.2761 96.7761 29.5 96.5 29.5C96.2239 29.5 96 29.2761 96 29V21H94V26.5C94 26.7761 93.7761 27 93.5 27C93.2239 27 93 26.7761 93 26.5V21H91V24C91 24.2761 90.7761 24.5 90.5 24.5C90.2239 24.5 90 24.2761 90 24V14H88V24C88 25.3807 89.1193 26.5 90.5 26.5C90.6712 26.5 90.8384 26.4828 91 26.45V26.5C91 27.8807 92.1193 29 93.5 29C93.6712 29 93.8384 28.9828 94 28.95V29C94 30.3807 95.1193 31.5 96.5 31.5C97.8807 31.5 99 30.3807 99 29V28.45C99.1616 28.4828 99.3288 28.5 99.5 28.5C100.881 28.5 102 27.3807 102 26V22.45C102.162 22.4828 102.329 22.5 102.5 22.5C103.881 22.5 105 21.3807 105 20V16.1492Z" fill="white"/>
<path fill-rule="evenodd" clip-rule="evenodd" d="M109.707 26.2928L107.207 23.7928L105.793 25.2071L108.293 27.7071L109.707 26.2928ZM106.914 39.4998L111.707 44.2927L110.293 45.7069L101.586 36.9998L111 27.5857L117.707 34.293L116.293 35.7072L113.5 32.9141L106.914 39.4998ZM105.5 38.0856L112.086 31.4999L111 30.4142L104.414 36.9998L105.5 38.0856ZM101 36C98.7909 36 97 34.2091 97 32H99C99 33.1045 99.8954 34 101 34H101.5V36H101Z" fill="#FCB4BC"/>
<path fill-rule="evenodd" clip-rule="evenodd" d="M168 8C159.163 8 152 15.1634 152 24C152 32.8366 159.163 40 168 40C176.837 40 184 32.8366 184 24C184 20.8878 183.112 17.9859 181.577 15.5301C181.284 15.0619 181.426 14.4449 181.895 14.1521C182.363 13.8593 182.98 14.0016 183.273 14.4699C185.001 17.2342 186 20.502 186 24C186 33.9411 177.941 42 168 42C158.059 42 150 33.9411 150 24C150 14.0589 158.059 6 168 6C171.498 6 174.766 6.9988 177.53 8.7272C177.998 9.01999 178.141 9.63697 177.848 10.1053C177.555 10.5735 176.938 10.7158 176.47 10.423C174.014 8.88759 171.112 8 168 8Z" fill="white"/>
<path fill-rule="evenodd" clip-rule="evenodd" d="M168 14C162.477 14 158 18.4772 158 24C158 29.5228 162.477 34 168 34C173.523 34 178 29.5228 178 24C178 22.3614 177.607 20.8177 176.91 19.4552C176.659 18.9634 176.854 18.361 177.345 18.1096C177.837 17.8582 178.44 18.0531 178.691 18.5448C179.528 20.1826 180 22.0377 180 24C180 30.6274 174.627 36 168 36C161.373 36 156 30.6274 156 24C156 17.3726 161.373 12 168 12C169.747 12 171.41 12.374 172.91 13.0473C173.413 13.2734 173.638 13.8652 173.412 14.3691C173.186 14.8729 172.594 15.0981 172.09 14.8719C170.843 14.312 169.459 14 168 14Z" fill="white"/>
<path fill-rule="evenodd" clip-rule="evenodd" d="M168 20C165.791 20 164 21.7909 164 24C164 26.2091 165.791 28 168 28C170.209 28 172 26.2091 172 24C172 23.4477 172.448 23 173 23C173.552 23 174 23.4477 174 24C174 27.3137 171.314 30 168 30C164.686 30 162 27.3137 162 24C162 20.6863 164.686 18 168 18C168.552 18 169 18.4477 169 19C169 19.5523 168.552 20 168 20Z" fill="#9EE3F0"/>
<path fill-rule="evenodd" clip-rule="evenodd" d="M181 7.41423L181 9.58582L184 6.5858L184 4.41421L181 7.41423ZM185.414 8.00002L182.414 11L184.586 11L187.586 8.00001L185.414 8.00002ZM185.707 12.7071C185.52 12.8947 185.265 13 185 13L180.414 13L168.707 24.7071C168.317 25.0976 167.683 25.0976 167.293 24.7071C166.902 24.3166 166.902 23.6834 167.293 23.2929L179 11.5858L179 7.00002C179 6.7348 179.105 6.48044 179.293 6.29291L184.293 1.29289C184.579 1.0069 185.009 0.921339 185.383 1.07612C185.756 1.2309 186 1.59554 186 2L186 6.00001L190 6.00001C190.404 6.00001 190.769 6.24366 190.924 6.61733C191.079 6.99101 190.993 7.42112 190.707 7.70712L185.707 12.7071Z" fill="#FCB4BC"/>
<path fill-rule="evenodd" clip-rule="evenodd" d="M234.879 19.0109L240.505 24.3125L246.215 19.0085C247.57 17.6407 247.566 15.4338 246.203 14.071C244.836 12.7042 242.62 12.7042 241.253 14.071L240.546 14.7781L239.839 14.071C238.472 12.7042 236.256 12.7042 234.889 14.071C233.526 15.4346 233.522 17.6433 234.879 19.0109ZM233.475 20.435C231.327 18.2871 231.327 14.8047 233.475 12.6568C235.4 10.7313 238.398 10.532 240.546 12.0587C242.694 10.532 245.692 10.7313 247.617 12.6568C249.765 14.8047 249.765 18.2871 247.617 20.435L247.604 20.448L240.495 27.0514L233.485 20.4455L233.475 20.435Z" fill="#FCB4BC"/>
<path d="M240 5C232.82 5 227 10.8203 227 18V20.5H225V18C225 9.71573 231.716 3 240 3C248.284 3 255 9.71573 255 18V19.0858L259.793 23.8787C261.683 25.7686 260.344 29 257.672 29H255V32C255 35.3137 252.314 38 249 38H247V45H245V38H242V36H249C251.209 36 253 34.2091 253 32V29C253 27.8954 253.895 27 255 27H257.672C258.562 27 259.009 25.9229 258.379 25.2929L253 19.9142V18C253 10.8203 247.18 5 240 5Z" fill="white"/>
<path d="M232.828 32.2426L231.793 31.2071L233.207 29.7929L234.243 30.8284C235.368 31.9536 236 33.4798 236 35.0711V45H234V35.0711C234 34.0102 233.579 32.9928 232.828 32.2426Z" fill="white"/>
<path d="M220 43H232V41H220V43Z" fill="white"/>
<path fill-rule="evenodd" clip-rule="evenodd" d="M220.293 28.2929L226 22.5858L231.707 28.2929L230.293 29.7071L227 26.4142L227 39L225 39L225 26.4142L221.707 29.7071L220.293 28.2929Z" fill="#9EE3F0"/>
</svg>
