<svg width="72" height="72" viewBox="0 0 72 72" fill="none" xmlns="http://www.w3.org/2000/svg">
<rect width="72" height="72" rx="16" fill="#52B9C7"/>
<mask id="mask0" mask-type="alpha" maskUnits="userSpaceOnUse" x="16" y="33" width="39" height="18">
<path fill-rule="evenodd" clip-rule="evenodd" d="M16 33.4231H54.7133V50.52H16V33.4231Z" fill="white"/>
</mask>
<g mask="url(#mask0)">
<path fill-rule="evenodd" clip-rule="evenodd" d="M26.2506 50.52L26.2509 47.4605C23.1885 47.6614 21.927 47.2331 20.3066 45.6555C18.98 44.3636 18.1713 42.2234 19.1855 39.9376C19.8917 38.3461 21.4843 37.0317 23.5951 36.6135C25.2676 36.2823 29.2823 36.489 31.2103 36.489H50.7845C51.9189 36.489 53.4329 36.6832 54.1767 36.0722C55.0488 35.3562 54.7894 34.1702 53.892 33.6767C53.213 33.3032 51.221 33.4526 50.3022 33.4526L26.8712 33.454C24.1806 33.454 22.4379 33.3481 20.3149 34.5497C14.6658 37.7472 13.6457 47.2427 22.87 50.1158C24.3117 50.5648 24.7221 50.4625 26.2506 50.52Z" fill="white"/>
</g>
<mask id="mask1" mask-type="alpha" maskUnits="userSpaceOnUse" x="17" y="16" width="19" height="16">
<path fill-rule="evenodd" clip-rule="evenodd" d="M17.7622 16.2247H35.9008V31.9075H17.7622V16.2247Z" fill="white"/>
</mask>
<g mask="url(#mask1)">
<path fill-rule="evenodd" clip-rule="evenodd" d="M35.8798 31.8604L35.9008 29.0698L32.038 29.0583C32.4782 28.1502 32.981 27.8669 33.4389 26.3756C36.0203 17.9711 24.7658 12.4028 19.3504 19.4028C16.3412 23.2927 17.9829 28.2927 21.1544 30.4361C23.264 31.8615 24.7872 31.8779 27.739 31.8779C29.3346 31.8779 34.7463 31.955 35.8798 31.8604ZM25.3165 18.9792C28.2976 18.6358 30.7048 20.8412 31.004 23.3624C31.3569 26.3381 29.1381 28.6954 26.488 29.0008C23.4236 29.3541 21.0364 27.148 20.7331 24.5662C20.3804 21.5639 22.64 19.2873 25.3165 18.9792Z" fill="white"/>
</g>
<mask id="mask2" mask-type="alpha" maskUnits="userSpaceOnUse" x="38" y="16" width="19" height="16">
<path fill-rule="evenodd" clip-rule="evenodd" d="M38.1529 16.2974H56.2818V31.9186H38.1529V16.2974Z" fill="white"/>
</mask>
<g mask="url(#mask2)">
<path fill-rule="evenodd" clip-rule="evenodd" d="M42.0647 29.0586L38.161 29.1024L38.1529 31.9186H46.2525C49.0921 31.9186 50.9126 31.8911 52.8933 30.49C56.6801 27.8107 57.3045 22.8797 54.7091 19.4289C50.6669 14.0554 41.4568 15.8334 40.3425 22.9559C39.9714 25.3289 40.8877 27.7732 42.0647 29.0586ZM43.1199 25.0466C42.4791 21.9783 44.7037 19.5538 47.1706 19.086C50.3099 18.4905 52.8295 20.6592 53.2662 23.0932C53.8165 26.1592 51.6799 28.5217 49.1381 28.9923C46.0519 29.5635 43.6195 27.4399 43.1199 25.0466Z" fill="white"/>
</g>
<path fill-rule="evenodd" clip-rule="evenodd" d="M26.2544 45.872L26.2551 43.0007C25.6876 43.1216 24.9655 43.1212 24.5937 42.7884C24.2014 42.4376 24.0559 41.9616 24.4878 41.5387C25.1953 40.8459 26.9072 41.1126 28.0283 41.1126C30.0002 41.1126 50.8927 41.1958 51.797 41.0861C51.9928 40.578 52.7755 38.5522 52.784 38.1641C45.4321 38.147 38.0802 38.1367 30.728 38.1219C27.4089 38.1151 23.2478 37.8798 21.8274 40.2576C21.0555 41.5495 21.445 43.3374 22.2574 44.3192C22.6368 44.7778 23.1873 45.2457 23.8251 45.5176C24.9132 45.9814 25.2693 45.6767 26.2544 45.872Z" fill="white"/>
<path fill-rule="evenodd" clip-rule="evenodd" d="M30.9722 47.4975L30.9476 50.5148C37.47 50.4307 43.2381 50.5114 49.8202 50.5114C51.5653 50.5114 54.8513 51.0424 54.7812 48.9406C54.7492 47.9842 53.8891 47.4892 52.9107 47.4739L30.9722 47.4975Z" fill="white"/>
<path fill-rule="evenodd" clip-rule="evenodd" d="M31.0005 43.0237L31.006 45.7938L52.7839 45.6037L51.9312 43.2145C51.7356 42.8212 51.9374 43.0464 51.6522 42.8842L31.0005 43.0237Z" fill="white"/>
<path fill-rule="evenodd" clip-rule="evenodd" d="M28.6517 51.5694L28.7105 51.8182C28.7777 52.0101 30.2084 54.355 30.7582 55.1925L30.7865 52.8204L30.8181 48.9525L30.8616 46.7674L30.8545 43.2182L30.8607 42.4519L26.3709 42.4474L26.3716 43.1885L26.3656 52.8285L26.3714 55.1667L26.5771 54.9361C26.8081 54.575 27.0216 54.2002 27.2476 53.8031C27.6019 53.1815 27.9679 52.5384 28.5032 51.78L28.6517 51.5694ZM30.9805 55.8456L30.7824 55.6245C30.5778 55.3966 28.9943 52.8193 28.5826 52.0656C28.1123 52.7476 27.7755 53.3391 27.4492 53.9123C27.2216 54.3119 27.0064 54.6896 26.7614 55.0696L26.1422 55.7649L26.1353 52.8287L26.1413 43.1885L26.1406 42.2227L31.0929 42.2272L31.0848 43.2188L31.0919 46.7694L31.0484 48.9557L30.9805 55.8456Z" fill="white"/>
</svg>
