<svg width="72" height="72" viewBox="0 0 72 72" fill="none" xmlns="http://www.w3.org/2000/svg">
<rect width="72" height="72" rx="16" fill="#093B60"/>
<path fill-rule="evenodd" clip-rule="evenodd" d="M35.9 21C36.8279 21 37.58 21.7522 37.58 22.68V30.66C37.58 31.5878 36.8279 32.34 35.9 32.34C34.9722 32.34 34.22 31.5878 34.22 30.66V22.68C34.22 21.7522 34.9722 21 35.9 21ZM24.0424 25.6671C23.3725 25.0251 22.3091 25.0477 21.6671 25.7176C21.0251 26.3875 21.0477 27.451 21.7176 28.0929L30.5319 36.54L21.7176 44.9871C21.0477 45.629 21.0251 46.6925 21.6671 47.3624C22.3091 48.0323 23.3725 48.0549 24.0424 47.4129L34.1224 37.7529C34.4531 37.4361 34.64 36.998 34.64 36.54C34.64 36.082 34.4531 35.6439 34.1224 35.3271L24.0424 25.6671ZM43.88 34.86C42.9522 34.86 42.2 35.6122 42.2 36.54C42.2 37.4678 42.9522 38.22 43.88 38.22H53.12C54.0479 38.22 54.8 37.4678 54.8 36.54C54.8 35.6122 54.0479 34.86 53.12 34.86H43.88ZM48.0079 26.1121C48.664 26.7681 48.664 27.8319 48.0079 28.4879L41.708 34.7879C41.0519 35.444 39.9882 35.444 39.3321 34.7879C38.676 34.1319 38.676 33.0681 39.3321 32.4121L45.6321 26.1121C46.2882 25.456 47.3519 25.456 48.0079 26.1121ZM48.0079 45.0121C48.664 45.6681 48.664 46.7319 48.0079 47.3879C47.3519 48.044 46.2882 48.044 45.6321 47.3879L39.3321 41.0879C38.676 40.4319 38.676 39.3681 39.3321 38.7121C39.9882 38.056 41.0519 38.056 41.708 38.7121L48.0079 45.0121ZM37.58 42.84C37.58 41.9122 36.8279 41.16 35.9 41.16C34.9722 41.16 34.22 41.9122 34.22 42.84V50.82C34.22 51.7478 34.9722 52.5 35.9 52.5C36.8279 52.5 37.58 51.7478 37.58 50.82V42.84Z" fill="white"/>
</svg>
