<svg width="72" height="72" viewBox="0 0 72 72" fill="none" xmlns="http://www.w3.org/2000/svg">
<rect width="72" height="72" rx="16" fill="#FF6200"/>
<g clip-path="url(#clip0)">
<path d="M28.1791 23.6849C28.6692 23.6849 29.0426 24.1449 28.9375 24.6402L28.4124 26.9637C28.3308 27.3176 28.0157 27.5771 27.654 27.5771H24.5385C24.0484 27.5771 23.675 27.1171 23.78 26.6217L24.2934 24.2982C24.3751 23.9444 24.6902 23.6849 25.0519 23.6849H28.1791ZM23.7333 30.2426C23.3716 30.2426 23.0566 30.5021 22.9749 30.8677L20.1044 44.9857C20.1044 45.0093 20.0927 45.0211 20.0927 45.0329C20.0344 45.2452 19.9644 45.5283 19.906 45.8585C19.836 46.2006 19.7427 46.5426 19.6143 46.8729C19.486 47.2031 19.3226 47.4862 19.1242 47.7221C18.9259 47.958 18.6575 48.0759 18.3308 48.0759C18.0507 48.0759 17.7707 48.0759 17.4906 48.0641C17.4323 48.0641 17.3739 48.0641 17.3039 48.0523C16.9189 48.0287 16.5921 48.3 16.5105 48.6656L16.0321 50.942C15.9387 51.402 16.2538 51.8266 16.7088 51.8737C16.8022 51.8855 16.8955 51.8973 16.9889 51.9091C17.3739 51.9563 17.7473 51.9799 18.1207 51.9799C19.1709 51.9799 20.0577 51.8737 20.7578 51.6496C21.458 51.4255 22.0531 51.0953 22.5431 50.6471C23.0215 50.1989 23.4066 49.6328 23.6983 48.9487C23.99 48.2646 24.2234 47.4626 24.4218 46.5544L27.5956 31.1862C27.7007 30.7026 27.3273 30.2426 26.8372 30.2426H23.7333ZM33.1732 35.963C32.9165 36.4111 32.7065 36.8711 32.5315 37.3665H39.9994C39.9994 36.0927 39.7543 34.6184 38.4825 34.0169C36.5455 33.1559 34.1651 34.0287 33.1732 35.963ZM49.4043 26.4684C49.8944 24.2746 52.0997 21.0193 52.7532 20.0758C52.8348 19.9696 52.9982 19.9932 53.0332 20.1229C53.3483 21.1373 54.2934 24.4161 53.99 26.4684C53.7567 27.5889 53.7217 27.9899 53.4649 29.3226L52.6015 33.5097C51.948 36.8947 50.6762 43.7237 50.3261 44.7381C49.4743 47.2739 46.8839 48.2764 44.4451 48.241C41.3413 48.1703 36.0554 48.2882 35.0752 48.2646C33.9317 48.2646 32.8932 48.1113 31.9597 47.7928C27.4439 46.4011 26.7438 40.7869 28.1791 36.7886C29.8944 31.5282 34.6201 28.9688 39.8127 30.5965C42.9165 31.5282 44.5735 34.4061 44.5151 37.6614C44.4101 38.4044 44.7368 40.3387 43.5933 40.3623H32.0414C31.703 42.9453 32.9282 44.797 35.7637 44.7263C36.1137 44.7263 40.9095 44.7027 44.6201 44.6909C45.2853 44.5611 45.7637 44.1247 46.032 43.4407C46.1254 43.1812 47.3739 36.4819 47.9924 33.4389L46.2071 33.4861C45.717 33.4979 45.4603 32.9082 45.787 32.5543L48.9025 29.1221C49.1826 27.754 49.2176 27.3884 49.4043 26.4684ZM53.2899 33.5805L55.2736 33.5923C55.8337 33.5923 56.1837 32.9789 55.9037 32.4954L54.1417 29.4052L53.2899 33.5805Z" fill="white"/>
</g>
<defs>
<clipPath id="clip0">
<rect width="40" height="31.8519" fill="white" transform="translate(16 20)"/>
</clipPath>
</defs>
</svg>
